<svg width="202" height="57" viewBox="0 0 202 57" fill="none" xmlns="http://www.w3.org/2000/svg">
<path d="M66.7277 16.2957C69.5864 16.2957 71.8264 16.9783 73.4477 18.3437C75.0691 19.709 75.8797 21.5863 75.8797 23.9757C75.8797 26.365 75.0691 28.2423 73.4477 29.6077C71.8264 30.9517 69.5864 31.6237 66.7277 31.6237H60.7117V38.6957H58.3437V16.2957H66.7277ZM66.6637 29.5437C68.8824 29.5437 70.5784 29.0637 71.7517 28.1037C72.9251 27.1223 73.5117 25.7463 73.5117 23.9757C73.5117 22.1623 72.9251 20.7757 71.7517 19.8157C70.5784 18.8343 68.8824 18.3437 66.6637 18.3437H60.7117V29.5437H66.6637ZM95.7862 21.8637V38.6957H93.6102V35.3677C92.9276 36.4983 92.0209 37.3623 90.8902 37.9597C89.7809 38.557 88.5222 38.8557 87.1142 38.8557C85.5356 38.8557 84.1062 38.493 82.8262 37.7677C81.5462 37.0423 80.5436 36.029 79.8182 34.7277C79.0929 33.4263 78.7302 31.9437 78.7302 30.2797C78.7302 28.6157 79.0929 27.133 79.8182 25.8317C80.5436 24.5303 81.5462 23.5277 82.8262 22.8237C84.1062 22.0983 85.5356 21.7357 87.1142 21.7357C88.4796 21.7357 89.7062 22.0237 90.7942 22.5997C91.9036 23.1543 92.8102 23.9757 93.5142 25.0637V21.8637H95.7862ZM87.3062 36.8397C88.4796 36.8397 89.5356 36.573 90.4742 36.0397C91.4342 35.485 92.1809 34.7063 92.7142 33.7037C93.2689 32.701 93.5462 31.5597 93.5462 30.2797C93.5462 28.9997 93.2689 27.8583 92.7142 26.8557C92.1809 25.853 91.4342 25.085 90.4742 24.5517C89.5356 23.997 88.4796 23.7197 87.3062 23.7197C86.1116 23.7197 85.0342 23.997 84.0742 24.5517C83.1356 25.085 82.3889 25.853 81.8342 26.8557C81.3009 27.8583 81.0342 28.9997 81.0342 30.2797C81.0342 31.5597 81.3009 32.701 81.8342 33.7037C82.3889 34.7063 83.1356 35.485 84.0742 36.0397C85.0342 36.573 86.1116 36.8397 87.3062 36.8397ZM104.29 25.1597C104.823 24.029 105.612 23.1757 106.658 22.5997C107.724 22.0237 109.036 21.7357 110.594 21.7357V23.9437L110.05 23.9117C108.279 23.9117 106.892 24.4557 105.89 25.5437C104.887 26.6317 104.386 28.157 104.386 30.1197V38.6957H102.114V21.8637H104.29V25.1597ZM120.947 30.2477L116.979 33.8957V38.6957H114.707V14.9517H116.979V31.0477L127.027 21.8637H129.843L122.643 28.7437L130.515 38.6957H127.731L120.947 30.2477ZM137.938 38.8557C136.573 38.8557 135.261 38.6637 134.002 38.2797C132.765 37.8743 131.794 37.373 131.09 36.7757L132.114 34.9837C132.818 35.5383 133.704 35.997 134.77 36.3597C135.837 36.701 136.946 36.8717 138.098 36.8717C139.634 36.8717 140.765 36.637 141.49 36.1677C142.237 35.677 142.61 34.9943 142.61 34.1197C142.61 33.501 142.408 33.021 142.002 32.6797C141.597 32.317 141.085 32.0503 140.466 31.8797C139.848 31.6877 139.026 31.5063 138.002 31.3357C136.637 31.0797 135.538 30.8237 134.706 30.5677C133.874 30.2903 133.16 29.8317 132.562 29.1917C131.986 28.5517 131.698 27.6663 131.698 26.5357C131.698 25.1277 132.285 23.9757 133.458 23.0797C134.632 22.1837 136.264 21.7357 138.354 21.7357C139.442 21.7357 140.53 21.885 141.618 22.1837C142.706 22.461 143.602 22.8343 144.306 23.3037L143.314 25.1277C141.928 24.1677 140.274 23.6877 138.354 23.6877C136.904 23.6877 135.805 23.9437 135.058 24.4557C134.333 24.9677 133.97 25.6397 133.97 26.4717C133.97 27.1117 134.173 27.6237 134.578 28.0077C135.005 28.3917 135.528 28.6797 136.146 28.8717C136.765 29.0423 137.618 29.2237 138.706 29.4157C140.05 29.6717 141.128 29.9277 141.938 30.1837C142.749 30.4397 143.442 30.877 144.018 31.4957C144.594 32.1143 144.882 32.9677 144.882 34.0557C144.882 35.5277 144.264 36.701 143.026 37.5757C141.81 38.429 140.114 38.8557 137.938 38.8557ZM155.962 38.8557C154.341 38.8557 152.88 38.493 151.578 37.7677C150.277 37.021 149.253 35.997 148.506 34.6957C147.76 33.3943 147.386 31.9223 147.386 30.2797C147.386 28.637 147.76 27.165 148.506 25.8637C149.253 24.5623 150.277 23.549 151.578 22.8237C152.88 22.0983 154.341 21.7357 155.962 21.7357C157.584 21.7357 159.045 22.0983 160.346 22.8237C161.648 23.549 162.661 24.5623 163.386 25.8637C164.133 27.165 164.506 28.637 164.506 30.2797C164.506 31.9223 164.133 33.3943 163.386 34.6957C162.661 35.997 161.648 37.021 160.346 37.7677C159.045 38.493 157.584 38.8557 155.962 38.8557ZM155.962 36.8397C157.157 36.8397 158.224 36.573 159.162 36.0397C160.122 35.485 160.869 34.7063 161.402 33.7037C161.936 32.701 162.202 31.5597 162.202 30.2797C162.202 28.9997 161.936 27.8583 161.402 26.8557C160.869 25.853 160.122 25.085 159.162 24.5517C158.224 23.997 157.157 23.7197 155.962 23.7197C154.768 23.7197 153.69 23.997 152.73 24.5517C151.792 25.085 151.045 25.853 150.49 26.8557C149.957 27.8583 149.69 28.9997 149.69 30.2797C149.69 31.5597 149.957 32.701 150.49 33.7037C151.045 34.7063 151.792 35.485 152.73 36.0397C153.69 36.573 154.768 36.8397 155.962 36.8397ZM184.313 21.8637V38.6957H182.137V35.6237C181.54 36.6477 180.718 37.4477 179.673 38.0237C178.628 38.5783 177.433 38.8557 176.089 38.8557C173.892 38.8557 172.153 38.2477 170.873 37.0317C169.614 35.7943 168.985 33.9917 168.985 31.6237V21.8637H171.257V31.3997C171.257 33.1703 171.694 34.5143 172.569 35.4317C173.444 36.349 174.692 36.8077 176.313 36.8077C178.084 36.8077 179.481 36.2743 180.505 35.2077C181.529 34.1197 182.041 32.6157 182.041 30.6957V21.8637H184.313ZM195.412 38.8557C193.898 38.8557 192.724 38.429 191.892 37.5757C191.082 36.7223 190.676 35.5383 190.676 34.0237V14.9517H192.948V33.8317C192.948 34.8343 193.183 35.6023 193.652 36.1357C194.122 36.6477 194.826 36.9037 195.764 36.9037C196.362 36.9037 196.874 36.8077 197.3 36.6157L197.46 38.5037C196.799 38.7383 196.116 38.8557 195.412 38.8557Z" fill="black"/>
<path d="M28.7788 7.85594L45.7507 39.0202L10.3331 38.1675L28.7788 7.85594Z" fill="#B20000"/>
<path d="M45.4548 17.2039L29.3343 48.8189L10.0735 19.0208L45.4548 17.2039Z" fill="#B20000"/>
</svg>
